<?xml version="1.0" standalone="no"?>
<!DOCTYPE svg PUBLIC "-//W3C//DTD SVG 20010904//EN"
 "http://www.w3.org/TR/2001/REC-SVG-20010904/DTD/svg10.dtd">
<svg version="1.0" xmlns="http://www.w3.org/2000/svg"
 width="80.000000pt" height="80.000000pt" viewBox="0 0 80.000000 80.000000"
 preserveAspectRatio="xMidYMid meet">
<metadata>
Created by potrace 1.14, written by Peter Selinger 2001-2017
</metadata>
<g transform="translate(0.000000,80.000000) scale(0.100000,-0.100000)"
fill="#000000" stroke="none">
<path d="M253 739 c-63 -24 -132 -89 -165 -156 -18 -38 -23 -64 -23 -123 0
-113 30 -166 173 -307 63 -62 118 -113 121 -113 4 0 22 16 41 35 l35 36 -117
115 c-119 117 -146 157 -152 220 -9 84 60 180 144 202 103 26 209 -36 235
-135 21 -82 5 -135 -65 -211 -22 -24 -40 -47 -40 -52 0 -4 17 -22 37 -40 l36
-32 43 48 c72 82 98 139 100 219 3 91 -22 159 -82 220 -24 26 -66 56 -92 68
-65 29 -161 31 -229 6z"/>
<path d="M318 542 c-35 -18 -60 -69 -50 -104 5 -20 80 -108 92 -108 15 0 72
65 86 98 24 56 -1 103 -64 121 -22 7 -39 5 -64 -7z"/>
</g>
</svg>
